<svg id="Final" xmlns="http://www.w3.org/2000/svg" viewBox="0 0 238.11 238.11"><defs><style>.cls-1{fill:#fff;}</style></defs><path class="cls-1" d="M119.06,5.67A113.39,113.39,0,1,0,232.44,119.06,113.38,113.38,0,0,0,119.06,5.67Zm0,81.09a174.8,174.8,0,0,1,30,2.7l-1.6.62c-6.43,2.45-9,3.55-13.86,7-6.58-.59-11.9-.68-14.51-.68s-7.92.09-14.5.68c-4.89-3.44-7.43-4.54-13.86-7l-1.6-.62A174.79,174.79,0,0,1,119.05,86.76ZM78.87,168.3c-17.3-.17-31.41-10.9-36-27.34A36.32,36.32,0,0,1,59.12,99.64a94.54,94.54,0,0,0,8.9,3.67c1.1.4,2.27.84,3.55,1.33a27.63,27.63,0,0,0-20.42,26.53c.78,18.81,14.92,27.36,27.73,27.36s26.94-8.56,27.72-27.34A27.38,27.38,0,0,0,89.09,105.6c-.35-.17-3.7-1.45-9.13-3.51-5.67-2.16-12.72-4.85-15.81-6.1a47.89,47.89,0,0,1-18-12.85c-7.38-8.4-10.93-21.62-3.22-29.87L56,64.47c.25,8.86,1.57,17.28,13.84,23.18,1.75.85,12.91,5.16,18.91,7.47l3.85,1.5c19.67,8,25.69,26.48,22.93,41.28C113,151.68,101.82,167.91,78.87,168.3Zm0-48.36a11.23,11.23,0,1,1-11.33,11.23A11.28,11.28,0,0,1,78.88,119.94Zm41,71.67a.81.81,0,0,1-1.57,0c-2.19-9.44-6.23-19.41-13.29-23.26a44.73,44.73,0,0,0,13.44-14.94.73.73,0,0,1,1.27,0,44.73,44.73,0,0,0,13.44,14.94C126.07,172.2,122,182.17,119.84,191.61Zm38.32-89.53c-5.44,2.07-8.79,3.35-9.18,3.54a27.36,27.36,0,0,0-17.47,25.55c.78,18.8,14.92,27.36,27.72,27.36s27-8.56,27.73-27.34a27.64,27.64,0,0,0-20.42-26.55c1.28-.49,2.45-.93,3.55-1.33a94.54,94.54,0,0,0,8.9-3.67A36.32,36.32,0,0,1,195.2,141c-4.55,16.44-18.66,27.17-36,27.34-22.94-.39-34.08-16.62-36.64-30.4-2.76-14.8,3.26-33.31,22.91-41.27l3.86-1.5c6-2.32,17.17-6.63,18.93-7.48,12.26-5.9,13.59-14.32,13.83-23.18l13.08-11.2c7.71,8.25,4.16,21.47-3.21,29.87A48.68,48.68,0,0,1,174,96C170.88,97.24,163.82,99.92,158.16,102.08Zm1.07,17.86a11.23,11.23,0,1,1-11.32,11.23A11.28,11.28,0,0,1,159.23,119.94Z"/></svg>