<?xml version="1.0" encoding="utf-8"?>
<!-- Generator: Adobe Illustrator 25.3.1, SVG Export Plug-In . SVG Version: 6.00 Build 0)  -->
<svg version="1.1" id="Layer_1" xmlns="http://www.w3.org/2000/svg" xmlns:xlink="http://www.w3.org/1999/xlink" x="0px" y="0px"
	 viewBox="0 0 1780.2 396.9" style="enable-background:new 0 0 1780.2 396.9;" xml:space="preserve">
<style type="text/css">
	.st0{fill:#FFFFFF;}
	.st1{fill:#0080A2;}
	.st2{fill:#54B1B3;}
</style>
<g id="Achtergronden">
</g>
<g>
	<path class="st0" d="M491.5,132.7l-5.3,31.4l-5,1.4c-12.1-9-23.1-13.4-32.8-13.4c-5.2,0-9.3,1.3-12.3,3.8c-3,2.5-4.5,5.6-4.5,9.1
		c0,3.9,1.9,7.1,5.6,9.7c3.7,2.5,9.6,5.5,17.6,8.8c8.4,3.5,15.3,6.8,20.6,9.8c5.3,3,9.9,7.1,13.7,12.5c3.8,5.3,5.7,12,5.7,20
		c0,8-2.1,15.5-6.3,22.5c-4.2,7-10.5,12.6-19,16.9c-8.5,4.3-19,6.4-31.5,6.4c-15.3,0-30.3-2.9-45.1-8.7l4.8-33l3.6-2.5
		c6.2,5.6,13.1,10.1,20.7,13.4c7.7,3.4,14.5,5,20.4,5c5.2,0,9.5-1.3,12.7-3.9c3.3-2.6,4.9-5.9,4.9-9.8c0-4.1-1.9-7.4-5.7-9.9
		c-3.8-2.5-9.8-5.4-17.8-8.5c-8.4-3.5-15.3-6.9-20.6-9.9c-5.3-3.1-9.9-7.3-13.7-12.7c-3.8-5.4-5.7-12.1-5.7-20.2
		c0-8.4,2.3-16.1,6.9-23c4.6-6.9,11.1-12.3,19.6-16.2c8.5-3.9,18.4-5.9,29.8-5.9C466.3,125.7,479.2,128.1,491.5,132.7z"/>
	<path class="st0" d="M647.8,138.7c8.6,7.6,12.9,18.4,12.9,32.6c0,16.4-5.7,29.6-17.1,39.5c-11.4,9.9-26.6,14.8-45.6,14.8h-14.3
		l1.4,43.4h-35.3l1.4-42l-1.4-99.4l61-0.3C626.9,127.4,639.2,131.2,647.8,138.7z M618.9,191.2c3.2-4.1,4.8-9.6,4.8-16.5
		c0-7.1-2-12.4-6-16c-4-3.5-10.2-5.5-18.6-5.9l-14,0.6l-0.8,46.2l20.2,0.8C610.9,198.4,615.8,195.3,618.9,191.2z"/>
	<path class="st0" d="M809.9,242.8l-2.5,26.3h-96.9l1.4-42l-1.4-99.4h98.3l2,2.8l-2.2,26l-36.4-1.4h-26.3l-0.6,28.6l25.2,0.3
		l24.4-0.8l2,2.5l-2.2,26.6l-26.6-0.8h-23.2l-0.3,12.3l0.6,17.9h24.6l38.1-1.1L809.9,242.8z"/>
	<path class="st0" d="M961.6,133l-6.2,29.7l-2.8,1.4c-9.3-6.3-20.2-9.5-32.5-9.5c-11.4,0-19.9,3.3-25.5,9.9
		c-5.6,6.6-8.4,17-8.4,31.2c0,30.8,11.9,46.2,35.6,46.2c11.8,0,23-2.8,33.6-8.4l3.1,1.7l-2.8,29.4c-11,4.5-23.1,6.7-36.1,6.7
		c-23,0-40.4-6.2-52.4-18.5c-11.9-12.3-17.9-30.1-17.9-53.2c0-23.5,6.3-41.7,19-54.6c12.7-12.9,30.7-19.3,54-19.3
		C936.4,125.7,949.5,128.1,961.6,133z"/>
	<path class="st0" d="M1106.1,157.4l-28.6-2h-8.1l-0.8,68.3l1.1,45.4h-35l1.4-42l-0.6-71.7h-8.1l-29.1,2l-2.2-2.8l2-26.9h108.1
		l2,2.8L1106.1,157.4z"/>
	<path class="st0" d="M1276.6,261l-0.3,3.9c-11.8,3.5-23.1,5.7-34.2,6.4l-5-3.4c-10.5-18.3-18.6-33.1-24.4-44.5h-21.6v0.3l1.4,45.4
		h-35.3l1.4-42l-1.4-99.4l61-0.3c15.9,0,28.1,3.7,36.8,11.1c8.7,7.4,13,17.9,13,31.5c0,8.8-2.3,16.9-7,24.5
		c-4.7,7.6-11.2,13.9-19.6,18.9C1254.2,231.5,1265.8,247.3,1276.6,261z M1212.8,197.7c12.3-4.1,18.5-12.1,18.5-24.1
		c0-6.7-2-11.7-5.9-15c-3.9-3.3-10.1-5.1-18.5-5.5l-14.3,0.6l-0.8,42.8L1212.8,197.7z"/>
	<path class="st0" d="M1440.2,221.2c0.2,16.1-5.1,28.4-15.8,37.1c-10.7,8.7-26.1,13-46.1,13c-19.4,0-34.3-4.3-44.5-13
		c-10.3-8.7-15.1-21-14.6-37.1l0.3-22.1l-0.8-71.4h35.3l-1.7,88.5c-0.2,17.7,9,26.6,27.4,26.6c18.7,0,27.9-8.9,27.7-26.6l-1.4-88.5
		h35.6l-1.1,72L1440.2,221.2z"/>
	<path class="st0" d="M1627.8,269.1l-2-42.8L1621,180h-2.2l-31.1,75h-27.2l-27.7-75h-2.2l-5,42.8l-3.1,46.2h-30l15.1-141.4h41.4
		l5.6,20.7l20.4,59.9h2.2l22.1-59.6l6.2-21h40.6l13.2,141.4H1627.8z"/>
</g>
<path class="st0" d="M311.8,198.4c0,62.6-50.8,113.4-113.4,113.4C135.8,311.8,85,261,85,198.4C85,135.8,135.8,85,198.4,85
	C261,85,311.8,135.8,311.8,198.4z M222.9,208.6c0,5.9,4.8,10.6,10.6,10.6c5.9,0,10.6-4.8,10.6-10.6c0-5.9-4.8-10.6-10.6-10.6
	C227.7,197.9,222.9,202.7,222.9,208.6z M153.5,208.6c0,5.9,4.8,10.6,10.6,10.6c5.9,0,10.6-4.8,10.6-10.6c0-5.9-4.8-10.6-10.6-10.6
	C158.3,197.9,153.5,202.7,153.5,208.6z M198.5,231.4c-0.2-0.4-1-0.4-1.2,0c-1.5,2.9-5.9,9.6-13,13.1c6.9,4.6,10.8,13.1,12.5,19.7
	c0.8,3.1,1.4,3.1,2.1,0c1.5-6.6,5.1-15.1,12.7-19.7C204.6,240.8,199.8,234.3,198.5,231.4z M184.2,182.5c-0.3-0.2-0.5-0.4-0.8-0.7
	c-1.5-1.3-3.2-2.3-5-3.3c-3.9-2-8.3-3.6-13.6-5.6c-0.6-0.2-1.2-0.5-1.9-0.7c-8-3-15.3-6-18.6-12.7c-2.6-5.4-2.3-12.1-2.3-12.1
	l-12.6-10.9c0,0-11.4,11,1.7,27.2c5.2,6.5,11.4,10.5,17.6,13.4c4.6,2.1,9.2,3.7,13.4,5.1c4.3,1.4,8.2,2.8,11.3,4.6
	c0.6,0.3,1.1,0.7,1.6,1c8.9,6.1,13.3,15.7,13.3,20.9c0,14.7-11,25.9-24.7,25.9c-13.7,0-25.5-11.4-25.5-25.5c0-7.7,3.3-14.8,8.8-19.3
	c2.5-2,5.3-3.8,8.7-5.3c-3.7-1.3-7.6-2.8-11.4-4.8c-1,0.7-2.1,1.5-3.1,2.3c-7.9,6.4-12.7,16.2-12.7,27.1c0,19.4,15.7,35.2,35.2,35.2
	s34.2-16.4,34.2-34.8C197.8,200.3,194.8,191.7,184.2,182.5z M199,209.5c0,18.3,14.8,34.8,34.2,34.8c19.5,0,35.2-15.7,35.2-35.2
	c0-10.9-4.9-20.7-12.8-27.1c-1-0.8-2.1-1.6-3.1-2.3c-3.9,2-7.8,3.5-11.4,4.8c3.4,1.5,6.3,3.3,8.7,5.3c5.5,4.5,8.8,11.6,8.8,19.3
	c0,14.1-11.8,25.5-25.5,25.5c-13.7,0-24.7-11.3-24.7-25.9c0-5.1,4.4-14.8,13.3-20.9c0.5-0.4,1-0.7,1.6-1c3.1-1.8,7-3.2,11.3-4.6
	c4.2-1.4,8.8-2.9,13.4-5.1c6.2-2.9,12.3-6.9,17.6-13.4c13.1-16.2,1.7-27.2,1.7-27.2l-12.6,10.9c0,0,0.4,6.8-2.3,12.1
	c-3.3,6.7-10.6,9.7-18.6,12.7c-0.6,0.2-1.2,0.5-1.9,0.7c-5.3,2-9.7,3.6-13.6,5.6c-1.8,1-3.5,2-5,3.3c-0.3,0.2-0.5,0.4-0.8,0.7
	C202,191.7,199,200.3,199,209.5z M211.1,177.6c4.1-3.1,8.9-5.1,14.3-7.1c-8.1-1.6-13.8-2.3-23.1-2.5c-1,0-2.1,0-3.2,0
	c-0.1,0-0.1,0-0.2,0c-0.3,0-0.5,0-0.8,0c-0.3,0-0.5,0-0.8,0c-0.1,0-0.1,0-0.2,0c-1.1,0-2.1,0-3.2,0c-9.3,0.2-15,0.9-23.1,2.5
	c5.4,2,10.1,4,14.3,7.1c4.6-0.5,9-0.7,12.7-0.7c0.1,0,0.2,0,0.3,0c0.1,0,0.2,0,0.3,0C202.1,176.9,206.5,177.1,211.1,177.6z"/>
<g>
	<path class="st1" d="M1754.8,200.9"/>
	<g>
		<path class="st2" d="M1754.4,201.3c0.6,0,2.1-0.9,0.8-0.9C1754.7,200.5,1753.1,201.3,1754.4,201.3L1754.4,201.3z"/>
	</g>
</g>
<g>
	<g>
		<path class="st2" d="M1708.5,201.4c0.6,0,2.1-0.9,0.8-0.9C1708.7,200.6,1707.2,201.4,1708.5,201.4L1708.5,201.4z"/>
	</g>
</g>
</svg>
